Coordinates
version=1
nRows=14
nColumns=40
inDegrees=yes

Units are S.I. units (second, meters, Newtons, ...)
Angles are in degrees.

endheader
time	pelvis_tilt	pelvis_list	pelvis_rotation	pelvis_tx	pelvis_ty	pelvis_tz	hip_flexion_r	hip_adduction_r	hip_rotation_r	knee_angle_r	knee_angle_r_beta	ankle_angle_r	subtalar_angle_r	mtp_angle_r	hip_flexion_l	hip_adduction_l	hip_rotation_l	knee_angle_l	knee_angle_l_beta	ankle_angle_l	subtalar_angle_l	mtp_angle_l	lumbar_extension	lumbar_bending	lumbar_rotation	arm_flex_r	arm_add_r	arm_rot_r	elbow_flex_r	pro_sup_r	wrist_flex_r	wrist_dev_r	arm_flex_l	arm_add_l	arm_rot_l	elbow_flex_l	pro_sup_l	wrist_flex_l	wrist_dev_l
     11.84000000	     -5.63019956	     -3.15195570	     -6.01014428	      0.96295925	      0.92170364	      0.43374155	     28.66416344	      0.64763173	    -13.68803696	     11.59020603	     11.59020603	      0.74864198	      7.76210857	     11.42794619	      0.53928634	     -2.08414601	    -14.39259260	     12.36438054	     12.36438054	     18.11796085	     -6.24433602	     -3.80039629	    -10.06445344	      6.14818454	      2.40878062	     -9.49771461	    -10.14009212	    -10.85104423	     29.43883842	     46.55872567	      0.00000000	      0.00000000	     14.83819773	    -16.51399887	     -5.42687182	     86.53030446	     47.50355950	      0.00000000	      0.00000000
     11.85271429	     -5.61152569	     -3.13649232	     -5.74968882	      0.96485176	      0.92004103	      0.43504295	     28.08591622	      0.78161585	    -14.03769653	     10.54621190	     10.54621190	      0.38056511	      8.32052491	     11.57486641	     -0.23932686	     -2.11263451	    -14.30010270	     12.18994492	     12.18994492	     18.56424234	     -5.84444040	     -3.97394786	     -9.74736267	      6.10680168	      1.98844356	     -8.83269810	    -10.15901862	    -10.80024946	     29.69705034	     46.54625372	      0.00000000	      0.00000000	     14.60225029	    -16.36320030	     -5.06600438	     85.53573797	     47.47016513	      0.00000000	      0.00000000
     11.86542857	     -5.63649975	     -3.11943479	     -5.48349785	      0.96672773	      0.91833093	      0.43640535	     27.85851160	      0.81569287	    -14.18290975	     10.53166841	     10.53166841	      0.27935120	      8.28993919	     11.49738446	     -0.86133069	     -2.16704213	    -14.05988613	     12.22108443	     12.22108443	     19.04787048	     -5.69172461	     -4.15931227	     -9.44300564	      6.05262181	      1.86254485	     -8.25614495	    -10.20043448	    -10.77577261	     29.90266534	     46.53997148	      0.00000000	      0.00000000	     14.30826085	    -15.91067320	     -4.74097778	     85.09301490	     47.44136211	      0.00000000	      0.00000000
     11.87814286	     -5.53295432	     -3.23845753	     -5.15446106	      0.96893664	      0.91711504	      0.43797842	     27.37218754	      0.96150932	    -14.31232935	     10.68998636	     10.68998636	     -0.29433996	      8.02307175	      9.78962768	     -1.65194220	     -2.45500547	    -14.25235461	     12.28149050	     12.28149050	     19.65019528	     -4.74512076	     -4.04893766	     -9.09391094	      6.20501902	      1.27068854	     -7.28144946	    -10.30811910	    -10.53751800	     30.04408313	     46.51903531	      0.00000000	      0.00000000	     14.44786028	    -15.92217003	     -3.99612632	     81.57946868	     47.34737120	      0.00000000	      0.00000000
     11.89085714	     -5.42066763	     -3.38027153	     -4.83968295	      0.97126857	      0.91581204	      0.43971379	     26.92541798	      1.17903008	    -13.96263500	     11.10982107	     11.10982107	     -1.99681405	      6.70703818	      4.06038948	     -2.18082547	     -2.86801740	    -14.48197418	     12.95976217	     12.95976217	     20.87411013	     -3.74716589	     -2.89268853	     -8.81986576	      6.36694799	      2.18571309	     -7.24399865	    -10.51534648	    -10.26266549	     30.20420650	     46.47080627	      0.00000000	      0.00000000	     15.53565285	    -15.01097705	     -2.11076256	     77.99590096	     47.22121166	      0.00000000	      0.00000000
     11.90357143	     -5.25667629	     -3.60972422	     -4.50973646	      0.97361301	      0.91515684	      0.44137287	     26.53899001	      1.33900985	    -13.97284982	     12.08879465	     12.08879465	     -1.79192922	      6.15562419	      3.60517095	     -2.86155940	     -3.27340284	    -14.15566907	     13.32332054	     13.32332054	     21.14707486	     -3.79224974	     -2.96052412	     -8.73194900	      6.66105553	      1.98162131	     -6.39359147	    -10.65846586	    -10.30079274	     30.58466441	     46.46383615	      0.00000000	      0.00000000	     14.66381299	    -14.41230963	     -1.70726134	     77.26444311	     47.17854071	      0.00000000	      0.00000000
     11.91628571	     -5.24887763	     -3.67018445	     -4.15051513	      0.97576281	      0.91410906	      0.44338692	     26.70108142	      1.43986605	    -12.96712912	     13.70608614	     13.70608614	     -2.40974876	      3.35914802	     -0.36157245	     -2.92266791	     -3.70025155	    -14.05716078	     14.55924004	     14.55924004	     21.98699211	     -3.56616268	     -2.30879458	     -8.31631035	      6.68747538	      1.89025785	     -5.68086634	    -10.82803576	    -10.38737351	     31.03365413	     46.43992795	      0.00000000	      0.00000000	     15.18384730	    -13.98588843	     -1.31240626	     72.73695965	     47.11291484	      0.00000000	      0.00000000
     11.92900000	     -5.07658771	     -3.74179419	     -3.78321977	      0.97807109	      0.91377104	      0.44527346	     26.66555256	      1.40531055	    -12.64117859	     15.46595425	     15.46595425	     -1.81811087	      2.04195456	     -1.37236939	     -3.14965294	     -4.09120138	    -13.70687832	     15.75067068	     15.75067068	     22.18027296	     -3.86432753	     -2.40567879	     -8.21779275	      6.74697844	      1.40628929	     -4.61025474	    -10.94261149	    -10.49415035	     31.62448523	     46.42725443	      0.00000000	      0.00000000	     14.38260750	    -13.84321328	     -0.98434093	     70.94005467	     47.06251521	      0.00000000	      0.00000000
     11.94171429	     -4.86795023	     -3.91088576	     -3.43703381	      0.98033186	      0.91388146	      0.44744315	     26.41434976	      1.64022581	    -11.86079371	     16.83240023	     16.83240023	     -1.48449712	     -0.07125526	     -2.70198676	     -3.17192607	     -4.67452352	    -13.37419879	     17.40241390	     17.40241390	     22.34126181	     -4.28234304	     -2.49052174	     -8.12410960	      6.91875903	      1.62330008	     -3.85256803	    -11.16882998	    -10.63333516	     32.09995832	     46.40881849	      0.00000000	      0.00000000	     14.57826709	    -12.96440277	     -0.72305552	     66.87731866	     47.00152463	      0.00000000	      0.00000000
     11.95442857	     -4.67644529	     -3.95445649	     -3.05169235	      0.98255343	      0.91424083	      0.44952991	     26.22991203	      1.64198165	    -11.52026848	     18.30893980	     18.30893980	     -0.64435748	     -1.29573789	     -3.23181231	     -2.92559518	     -5.16864381	    -12.90989371	     19.44541935	     19.44541935	     22.13904274	     -4.98805818	     -2.92466836	     -8.06585394	      6.94556129	      1.23175014	     -2.72093247	    -11.31096233	    -10.75740292	     32.78186112	     46.39280623	      0.00000000	      0.00000000	     13.67463203	    -12.69477949	     -0.48890017	     64.61943290	     46.94939087	      0.00000000	      0.00000000
     11.96714286	     -4.47660268	     -4.04681752	     -2.66050699	      0.98466457	      0.91496027	      0.45174884	     25.88706337	      1.77649750	    -11.05273793	     19.45164560	     19.45164560	      0.22495649	     -2.65744356	     -3.39521225	     -2.40357904	     -5.78801174	    -12.37736844	     21.95983049	     21.95983049	     21.56917231	     -5.96535597	     -3.73098778	     -8.03648246	      7.02384053	      1.01794436	     -1.59537815	    -11.49935069	    -10.83074730	     33.46736235	     46.37188938	      0.00000000	      0.00000000	     13.08558436	    -12.20150982	     -0.44210051	     61.43445572	     46.90139141	      0.00000000	      0.00000000
     11.97985714	     -4.10591814	     -4.14152396	     -2.29168300	      0.98672449	      0.91623296	      0.45402621	     25.22671314	      1.94240634	    -10.66676368	     20.32565238	     20.32565238	      1.32825160	     -3.69391547	     -2.89073109	     -1.95466270	     -6.40387976	    -11.81469143	     24.55330601	     24.55330601	     19.98818915	     -7.44892751	     -6.02088141	     -8.18020263	      7.11323036	      1.55026784	     -0.99682924	    -11.86175522	    -10.92176140	     34.45454766	     46.32245936	      0.00000000	      0.00000000	     13.66979443	    -10.96277764	     -0.70957693	     56.07669047	     46.86533819	      0.00000000	      0.00000000
     11.99257143	     -3.75498057	     -4.24343292	     -1.85392271	      0.98861498	      0.91754561	      0.45628206	     24.45814897	      2.05620422	    -10.67533592	     20.92278870	     20.92278870	      2.24723010	     -4.17350511	     -3.10574287	     -1.04377889	     -7.14570043	    -11.19952601	     27.94956743	     27.94956743	     18.84289643	     -8.62377673	     -6.78997305	     -8.42839893	      7.15564358	      1.31389489	      0.28413573	    -12.08872859	    -11.02197452	     35.26355067	     46.30230692	      0.00000000	      0.00000000	     12.52524842	    -10.75541220	     -0.57355639	     54.34046963	     46.82310529	      0.00000000	      0.00000000
     12.00528571	     -3.56202762	     -4.28775613	     -1.43130409	      0.99016626	      0.91876139	      0.45852587	     23.81730264	      2.17459605	    -10.56723646	     21.36689707	     21.36689707	      3.27080647	     -4.81110643	     -2.48755216	      0.18838791	     -7.75885585	    -10.30363040	     31.31629712	     31.31629712	     15.88689829	    -11.10021119	    -10.52340519	     -8.39117049	      7.19547316	      1.55943818	      1.01345274	    -12.48394046	    -10.81371089	     36.79066115	     46.21310050	      0.00000000	      0.00000000	     12.95334310	     -9.72196924	     -1.20245157	     48.41945865	     46.81413265	      0.00000000	      0.00000000
